<svg xmlns="http://www.w3.org/2000/svg" viewBox="0 0 512 512">
    <rect width="512" height="512" fill="#0b0b15"/>
    <circle cx="256" cy="256" r="200" fill="none" stroke="#00f0ff" stroke-width="20"/>
    <g transform="translate(106, 106) scale(0.6)">
        <path fill="#b877ff" d="M369.3 154.5c4.7-16.7 8.3-33.8 8.3-51.7c0-62.8-59.9-102.8-59.9-102.8c-17.7 20.3-26.2 47.5-24.1 76.5l-63.5-38.1l23.4-78.4H246.5l23.4 78.4l-63.5 38.1c2.1-29 6.4-56.2-24.1-76.5c0 0-59.9 40-59.9 102.8c0 17.9 3.6 35 8.3 51.7l-94.4 56.6l31.1 52.1l74.4-44.6c26 23.3 64.6 39.8 108.3 39.8s82.3-16.5 108.3-39.8l74.4 44.6l31.1-52.1L369.3 154.5zM250 361.5c-60.8 0-110-49.2-110-110s49.2-110 110-110s110 49.2 110 110S310.8 361.5 250 361.5z"/>
        <path fill="#ff0099" d="M128 422c0 17.7 14.3 32 32 32h180c17.7 0 32-14.3 32-32s-14.3-32-32-32H160c-17.7 0-32 14.3-32 32z"/>
    </g>
</svg>
